<?xml version="1.0" encoding="utf-8"?>
<!-- Generator: Adobe Illustrator 25.0.1, SVG Export Plug-In . SVG Version: 6.00 Build 0)  -->
<svg version="1.1" id="Layer_1" xmlns="http://www.w3.org/2000/svg" xmlns:xlink="http://www.w3.org/1999/xlink" x="0px" y="0px"
	 viewBox="0 0 29 28.9" style="enable-background:new 0 0 29 28.9;" xml:space="preserve">
<linearGradient id="SVGID_1_" gradientUnits="userSpaceOnUse" x1="2.6628" y1="14.4293" x2="26.2938" y2="14.4293">
	<stop  offset="0" style="stop-color:#02AAB0"/>
	<stop  offset="1" style="stop-color:#00CDAC"/>
</linearGradient>
<path style="fill:url(#SVGID_1_);" d="M14,10.5c0-0.5,0-1.1,0.1-1.6c0.5-2.4,2.4-4.3,4.8-4.7c2.7-0.4,5.9,0.8,7,4.2
	c0.7,2.1,0.2,5.4-2.2,7c-1.9,1.3-3.9,1.4-6,0.5c-0.1,0-0.1,0-0.2-0.1c0,0,0,0,0,0c0,0.3,0.1,0.6,0.1,0.9c0.1,2.9-1.4,6.6-5.5,7.7
	c-2.1,0.6-4.1,0.2-5.9-1c-2.2-1.4-3.4-3.4-3.6-5.9c-0.2-2.1,0.3-4.1,1.7-5.8C6,10,7.9,9.2,10.3,9.3c1.3,0.1,2.4,0.5,3.5,1.1
	C13.9,10.5,13.9,10.5,14,10.5z M9.9,11.1c-0.2,0-0.6,0.1-1,0.1c-3.2,0.8-4.7,3.6-4.3,6.5c0.2,1.5,1,2.8,2.2,3.8
	c1.5,1.2,3.2,1.7,5.1,1.1c2.1-0.6,3.5-2.1,4-4.2c0.5-2.2-0.1-4.1-1.7-5.7C13.1,11.5,11.6,11.1,9.9,11.1z M24.5,10.3
	c-0.1-2.5-2.2-4.4-4.6-4.3c-2.5,0.1-4.3,2.1-4.2,4.6c0.1,2,1.7,4.3,4.7,4.2C22.7,14.7,24.6,12.6,24.5,10.3z"/>
</svg>
